<svg height="512" viewBox="0 0 512 512" width="512" xmlns="http://www.w3.org/2000/svg"><g id="Layer_2" data-name="Layer 2"><path d="m494.16 83.2h-476.32a1.835 1.835 0 0 0 -1.84 1.84v20.86a1.833 1.833 0 0 0 1.84 1.83h476.32a1.833 1.833 0 0 0 1.84-1.83v-20.86a1.835 1.835 0 0 0 -1.84-1.84z" fill="#eeaf42"/><path d="m467.24 107.73s36.36 48.83.29 163.32c-18.56 58.9-17.29 133.71-9.3 153.83a2.876 2.876 0 0 1 -2.69 3.92h-19.13a2.9 2.9 0 0 1 -2.65-1.75c-8.6-19.75-13.16-95.7 8.4-156 4.24-11.86 7.64-23.21 10.34-34a12.573 12.573 0 0 0 -12.24-15.59l-367.21-.01a12.58 12.58 0 0 0 -12.2 15.72c2.74 10.58 6.51 24.3 9.94 33.88 21.56 60.3 16.99 136.25 8.4 156a2.9 2.9 0 0 1 -2.66 1.75h-19.12a2.872 2.872 0 0 1 -2.69-3.92c7.98-20.12 8.48-94.69-9.3-153.83-34.96-116.24-.02-163.32-.02-163.32z" fill="#e1644f"/><path d="m452.42 138.7v50.33a11.322 11.322 0 0 1 -11.32 11.32h-157.63a11.322 11.322 0 0 1 -11.32-11.32v-50.33a11.314 11.314 0 0 1 11.32-11.31h157.63a11.314 11.314 0 0 1 11.32 11.31z" fill="#eeaf42"/><path d="m365.02 154.81a9.055 9.055 0 1 1 -9.07 9.06 9.067 9.067 0 0 1 9.07-9.06z" fill="#e1644f"/><path d="m46 105.9v-20.86a1.835 1.835 0 0 1 1.84-1.84h-30a1.835 1.835 0 0 0 -1.84 1.84v20.86a1.833 1.833 0 0 0 1.84 1.83h30a1.833 1.833 0 0 1 -1.84-1.83z" fill="#cc9340"/><path d="m70.79 271.05c-3.43-9.58-7.2-23.3-9.94-33.88a12.506 12.506 0 0 1 3.489-12.21c-14.509-82.76 11.061-117.23 11.061-117.23h-30s-34.94 47.08.02 163.32c17.78 59.14 17.28 133.71 9.3 153.83a2.872 2.872 0 0 0 2.69 3.92h19.12a2.9 2.9 0 0 0 2.66-1.75c8.59-19.75 13.16-95.7-8.4-156z" fill="#b55447"/><path d="m250.47 138.7v50.33a11.322 11.322 0 0 1 -11.32 11.32h-167.77a11.322 11.322 0 0 1 -11.32-11.32v-50.33a11.314 11.314 0 0 1 11.32-11.31h167.77a11.314 11.314 0 0 1 11.32 11.31z" fill="#eeaf42"/><path d="m150.17 156.56a7.585 7.585 0 1 1 -7.6 7.58 7.6 7.6 0 0 1 7.6-7.58z" fill="#c95f50"/></g></svg>