<svg height="511pt" viewBox="1 -13 511.999 511" width="511pt" xmlns="http://www.w3.org/2000/svg"><path d="m490.886719 156.574219c-.007813-17.15625-9.652344-32.164063-23.78125-39.886719-7.496094-4.097656-13.199219-10.855469-15.890625-18.96875-12.4375-37.5-42.328125-67.773438-81.65625-79.550781-32.648438-9.773438-71.964844-17.6875-113.648438-17.667969s-80.988281 7.976562-113.628906 17.785156c-39.3125 11.8125-69.175781 42.121094-81.578125 79.632813-2.679687 8.113281-8.375 14.878906-15.867187 18.984375-14.121094 7.738281-23.75 22.753906-23.742188 39.910156l.023438 40.402344c.011718 25.003906 20.480468 45.449218 45.480468 45.4375l51.769532-.027344c25-.011719 45.445312-20.480469 45.433593-45.480469l-.019531-40.40625c-.007812-16.25-8.660156-30.574219-21.578125-38.605469-5.410156-3.363281-6.394531-10.898437-1.996094-15.511718 9.90625-10.394532 22.496094-18.351563 36.9375-22.691406 18.253907-5.484376 39.53125-10.128907 62.25-11.703126v-21.230468c0-9.167969 7.433594-16.605469 16.609375-16.605469 9.167969 0 16.605469 7.433594 16.605469 16.605469v21.277344c22.410156 1.605468 43.398437 6.175781 61.433594 11.574218 14.582031 4.367188 27.285156 12.421875 37.246093 22.953125 4.34375 4.59375 3.425782 12.054688-1.90625 15.445313-12.710937 8.085937-21.1875 22.300781-21.179687 38.398437l.023437 40.40625c.011719 25 20.476563 45.445313 45.476563 45.433594l51.773437-.027344c25-.011719 45.445313-20.476562 45.433594-45.476562zm0 0" fill="#54a0ff"/><path d="m52.023438 197.214844-.023438-40.402344c-.007812-17.15625 9.621094-32.171875 23.738281-39.910156 7.496094-4.109375 13.191407-10.871094 15.871094-18.984375 12.402344-37.511719 42.261719-67.820313 81.578125-79.632813 28.625-8.601562 62.375-15.777344 98.359375-17.425781-5.167969-.238281-10.382813-.363281-15.636719-.359375-41.683594.019531-80.988281 7.976562-113.632812 17.785156-39.3125 11.8125-69.175782 42.121094-81.574219 79.632813-2.679687 8.113281-8.378906 14.878906-15.871094 18.984375-14.117187 7.738281-23.746093 22.753906-23.738281 39.910156l.019531 40.402344c.015625 25.003906 20.480469 45.449218 45.480469 45.4375l30.289062-.015625c-24.71875-.324219-44.847656-20.628907-44.859374-45.421875zm0 0" fill="#338def"/><path d="m379.128906 197.050781-.019531-40.40625c-.007813-16.097656 8.46875-30.3125 21.179687-38.398437 5.332032-3.390625 6.25-10.855469 1.90625-15.445313-9.964843-10.53125-22.664062-13.433593-37.246093-17.800781-15.5625-4.660156-33.324219-8.695312-52.296875-10.746094 7.488281 1.671875 14.644531 3.578125 21.386718 5.59375 14.582032 4.367188 27.285157 12.421875 37.25 22.953125 4.34375 4.59375 3.425782 12.054688-1.90625 15.445313-12.714843 8.085937-21.191406 22.300781-21.183593 38.398437l.023437 40.40625c.011719 25 20.476563 45.445313 45.480469 45.433594l30.285156-.015625c-24.714843-.324219-44.84375-20.625-44.859375-45.417969zm0 0" fill="#338def"/><path d="m430.855469 242.472656h-63.019531c-28.347657 0-53.621094-18.242187-62.125-45.28125-.066407-.210937-.132813-.421875-.195313-.636718-5.371094-17.429688-18.15625-28.425782-32.910156-33.042969v12.648437c0 9.171875-7.433594 16.605469-16.605469 16.605469s-16.609375-7.433594-16.609375-16.605469v-12.613281c-14.769531 4.648437-27.5625 15.660156-32.90625 33.007813-.066406.214843-.132813.425781-.199219.636718-8.5 27.039063-33.773437 45.28125-62.121094 45.28125h-63.019531c-37.429687 0-68.054687 30.625-68.054687 68.054688v137.972656h485.816406v-137.972656c.003906-37.429688-30.621094-68.054688-68.050781-68.054688zm0 0" fill="#657482"/><g fill="#576574"><path d="m237.195312 197.191406c.066407-.210937.132813-.421875.199219-.636718 1.242188-4.03125 2.898438-7.707032 4.878907-11.050782-1.816407-2.664062-2.878907-5.878906-2.878907-9.34375v-12.613281c-14.773437 4.648437-27.5625 15.660156-32.910156 33.007813-.0625.214843-.128906.425781-.195313.636718-8.503906 27.039063-33.777343 45.28125-62.125 45.28125h30.910157c28.34375 0 53.621093-18.242187 62.121093-45.28125zm0 0"/><path d="m112.050781 242.472656h-30.90625c-37.429687 0-68.054687 30.625-68.054687 68.054688v137.972656h30.90625v-137.972656c.003906-37.429688 30.625-68.054688 68.054687-68.054688zm0 0"/><path d="m337.652344 332.535156c0 45.09375-36.554688 81.652344-81.652344 81.652344s-81.652344-36.558594-81.652344-81.652344c0-45.097656 36.554688-81.65625 81.652344-81.65625s81.652344 36.558594 81.652344 81.65625zm0 0"/></g><path d="m207.121094 332.535156c0-39.484375 28.023437-72.421875 65.265625-80.007812-5.292969-1.078125-10.773438-1.648438-16.386719-1.648438-45.097656 0-81.652344 36.558594-81.652344 81.65625 0 45.09375 36.554688 81.652344 81.652344 81.652344 5.613281 0 11.09375-.570312 16.386719-1.648438-37.242188-7.585937-65.265625-40.523437-65.265625-80.003906zm0 0" fill="#3e4b5a"/><path d="m163.761719 198.3125h-142.625c.597656 24.496094 20.816406 44.351562 45.449219 44.339844l51.773437-.027344c24.609375-.011719 44.789063-19.847656 45.402344-44.3125zm0 0" fill="#8ac2ff"/><path d="m66.589844 242.652344 30.292968-.015625c-24.351562-.320313-44.238281-20.03125-44.832031-44.324219h-30.90625c.628907 24.816406 21.109375 44.347656 45.445313 44.339844zm0 0" fill="#54a0ff"/><path d="m393.695312 242.484375 51.769532-.027344c24.554687-.011719 44.699218-19.753906 45.398437-44.144531h-142.617187c.6875 24.421875 20.871094 44.183594 45.449218 44.171875zm0 0" fill="#8ac2ff"/><path d="m393.699219 242.484375 15.871093-.007813 14.421876-.007812c-24.296876-.316406-44.148438-19.941406-44.828126-44.15625h-30.90625c.757813 24.882812 21.253907 44.183594 45.441407 44.171875zm0 0" fill="#54a0ff"/><path d="m501.378906 446.4375h-490.757812c-5.863282 0-10.621094 4.757812-10.621094 10.621094v17.503906c0 5.867188 4.757812 10.625 10.621094 10.625h490.757812c5.863282 0 10.621094-4.757812 10.621094-10.625v-17.503906c0-5.863282-4.757812-10.621094-10.621094-10.621094zm0 0" fill="#3e4b5a"/><path d="m501.378906 458.742188h-490.757812c-4.265625 0-7.9375-2.523438-9.625-6.152344-.632813 1.359375-.996094 2.871094-.996094 4.46875v17.503906c0 5.867188 4.757812 10.625 10.621094 10.625h490.757812c5.863282 0 10.621094-4.757812 10.621094-10.625v-17.503906c0-1.597656-.363281-3.109375-.996094-4.46875-1.6875 3.628906-5.359375 6.152344-9.625 6.152344zm0 0" fill="#313f4c"/><path d="m304.878906 332.535156c0 26.992188-21.882812 48.875-48.878906 48.875s-48.878906-21.882812-48.878906-48.875c0-26.996094 21.882812-48.878906 48.878906-48.878906s48.878906 21.882812 48.878906 48.878906zm0 0" fill="#3e4b5a"/><path d="m239.898438 332.535156c0-21.246094 13.554687-39.316406 32.488281-46.054687-5.125-1.824219-10.636719-2.824219-16.386719-2.824219-26.996094 0-48.878906 21.882812-48.878906 48.878906 0 26.992188 21.882812 48.878906 48.878906 48.878906 5.75 0 11.261719-1.003906 16.386719-2.824218-18.933594-6.742188-32.488281-24.8125-32.488281-46.054688zm0 0" fill="#313f4c"/><path d="m256 193.796875c-9.554688 0-17.296875-7.433594-17.296875-16.605469v-131.226562c0-9.167969 7.742187-16.605469 17.296875-16.605469s17.296875 7.433594 17.296875 16.605469v131.226562c0 9.171875-7.742187 16.605469-17.296875 16.605469zm0 0" fill="#576574"/><path d="m263.773438 177.191406v-131.226562c0-4.429688 1.816406-8.441406 4.761718-11.417969-3.152344-3.1875-7.597656-5.1875-12.535156-5.1875-9.550781 0-17.296875 7.4375-17.296875 16.609375v131.222656c0 9.171875 7.742187 16.605469 17.296875 16.605469 4.9375 0 9.382812-1.996094 12.535156-5.183594-2.945312-2.980469-4.761718-6.992187-4.761718-11.421875zm0 0" fill="#3e4b5a"/></svg>