<svg height="512pt" viewBox="0 0 512 512" width="512pt" xmlns="http://www.w3.org/2000/svg">
    <path fill="#ff7300" d="m437.019531 74.980469c-48.351562-48.351563-112.640625-74.980469-181.019531-74.980469s-132.667969 26.628906-181.019531 74.980469c-48.351563 48.351562-74.980469 112.640625-74.980469 181.019531 0 45.105469 11.835938 89.230469 34.285156 128.039062l-34.285156 127.960938 127.960938-34.285156c38.808593 22.449218 82.933593 34.285156 128.039062 34.285156 68.378906 0 132.667969-26.628906 181.019531-74.980469 48.351563-48.351562 74.980469-112.640625 74.980469-181.019531s-26.628906-132.667969-74.980469-181.019531zm-21.214843 340.824219c-42.683594 42.6875-99.4375 66.195312-159.804688 66.195312-39.722656 0-78.804688-10.460938-113.019531-30.253906l-10.769531-6.230469-89.785157 24.058594 24.058594-89.785157-6.230469-10.769531c-19.792968-34.214843-30.253906-73.296875-30.253906-113.019531 0-60.367188 23.507812-117.121094 66.195312-159.804688 42.683594-42.6875 99.4375-66.195312 159.804688-66.195312s117.121094 23.507812 159.808594 66.195312c42.683594 42.6875 66.191406 99.4375 66.191406 159.804688s-23.507812 117.121094-66.195312 159.804688zm0 0"/>
    <path fill="#ff7300" d="m288.023438 310.246094-86.265626-86.269532 21.210938-21.210937-31.820312-31.820313-4.242188 4.242188c-11.433594 11.433594-15.285156 29.707031-10.847656 51.457031 4.894531 23.992188 19.042968 48.660157 39.839844 69.457031 26.0625 26.0625 58.292968 41.621094 86.226562 41.621094 10.0625 0 24.253906-2.191406 34.6875-12.628906l4.242188-4.242188-31.820313-31.820312zm0 0"/>
    <path fill="#ff7300" d="m394.59375 117.40625c-37.019531-37.019531-86.238281-57.40625-138.59375-57.40625s-101.574219 20.386719-138.59375 57.40625-57.40625 86.242188-57.40625 138.59375c0 34.453125 9.066406 68.34375 26.222656 97.996094l12.460938 21.539062-13.832032 51.613282 51.613282-13.832032 21.539062 12.460938c29.652344 17.15625 63.539063 26.222656 97.996094 26.222656 52.355469 0 101.574219-20.386719 138.59375-57.40625s57.40625-86.242188 57.40625-138.59375-20.386719-101.574219-57.40625-138.59375zm-36.566406 228.902344c-14.007813 14.007812-33.339844 21.414062-55.898438 21.414062-35.71875 0-75.882812-18.84375-107.441406-50.40625-24.910156-24.910156-41.964844-54.984375-48.023438-84.675781-6.515624-31.941406.242188-59.878906 19.03125-78.667969l25.457032-25.453125 74.242187 74.246094-21.210937 21.210937 43.839844 43.839844 21.214843-21.210937 74.246094 74.246093zm0 0"/>
</svg>